<svg version="1.1" xmlns="http://www.w3.org/2000/svg" xmlns:xlink="http://www.w3.org/1999/xlink" width="182.2686" height="60.94269" viewBox="0,0,182.2686,60.94269"><g transform="translate(-145.65318,2.5)"><g stroke-miterlimit="10"><path d="M148.15319,55.94269v-55.94269h177.2686v55.94269z" fill="#ff0000" stroke="#ab0000" stroke-width="5" stroke-linecap="butt"></path><text transform="translate(191.85182,22.93496) scale(0.5,0.5)" font-size="40" xml:space="preserve" fill="#000000" stroke="none" stroke-width="1" stroke-linecap="butt" font-family="Serif" font-weight="normal" text-anchor="start"><tspan x="0" dy="0">Undertale</tspan></text><text transform="translate(169.27108,44.52107) scale(0.43845,0.43845)" font-size="40" xml:space="preserve" fill="#7f0000" stroke="none" stroke-width="1" stroke-linecap="butt" font-family="Serif" font-weight="normal" text-anchor="start"><tspan x="0" dy="0">Once Upon a time</tspan></text><path d="M304.6194,44.07599v-6.17021h6.50677v6.05803" fill="none" stroke="#7f0000" stroke-width="2" stroke-linecap="round"></path><path d="M312.11831,45.53441c-0.80546,0 -1.45841,-0.65295 -1.45841,-1.45841c0,-0.80546 0.65295,-1.45842 1.45841,-1.45842c0.80546,0 1.45842,0.65296 1.45842,1.45842c0,0.80546 -0.65296,1.45841 -1.45842,1.45841z" fill="#7f0000" stroke="#a200ff" stroke-width="0" stroke-linecap="butt"></path><path d="M305.64729,45.46898c-0.80546,0 -1.45841,-0.65296 -1.45841,-1.45842c0,-0.80546 0.65295,-1.45842 1.45841,-1.45842c0.80546,0 1.45842,0.65296 1.45842,1.45842c0,0.80546 -0.65296,1.45842 -1.45842,1.45842z" fill="#7f0000" stroke="#a200ff" stroke-width="0" stroke-linecap="butt"></path><path d="M157.12633,41.80196v-6.05803h6.50677v6.17021" fill="none" stroke="#7f0000" stroke-width="2" stroke-linecap="round"></path><path d="M154.67576,41.91415c0,-0.80546 0.65296,-1.45842 1.45842,-1.45842c0.80546,0 1.45841,0.65296 1.45841,1.45842c0,0.80546 -0.65295,1.45841 -1.45841,1.45841c-0.80546,0 -1.45842,-0.65295 -1.45842,-1.45841z" fill="#7f0000" stroke="#a200ff" stroke-width="0" stroke-linecap="butt"></path><path d="M161.14678,41.84871c0,-0.80546 0.65296,-1.45842 1.45843,-1.45842c0.80546,0 1.45841,0.65296 1.45841,1.45842c0,0.80546 -0.65295,1.45842 -1.45841,1.45842c-0.80546,0 -1.45843,-0.65296 -1.45843,-1.45842z" fill="#7f0000" stroke="#a200ff" stroke-width="0" stroke-linecap="butt"></path></g></g></svg>